<mxfile host="app.diagrams.net" modified="2024-05-13T07:06:58.766Z" agent="Mozilla/5.0 (Macintosh; Intel Mac OS X 10_15_7) AppleWebKit/537.36 (KHTML, like Gecko) Chrome/125.0.0.0 Safari/537.36" etag="DW9zbAwpCw8W6Kzted2m" version="24.4.0" type="device">
  <diagram id="C5RBs43oDa-KdzZeNtuy" name="Page-1">
    <mxGraphModel dx="1434" dy="698" grid="1" gridSize="10" guides="1" tooltips="1" connect="1" arrows="1" fold="1" page="1" pageScale="1" pageWidth="827" pageHeight="1169" math="0" shadow="0">
      <root>
        <mxCell id="WIyWlLk6GJQsqaUBKTNV-0" />
        <mxCell id="WIyWlLk6GJQsqaUBKTNV-1" parent="WIyWlLk6GJQsqaUBKTNV-0" />
        <mxCell id="vsUGtmn5lmGGKZTb9wEo-53" style="edgeStyle=orthogonalEdgeStyle;rounded=0;orthogonalLoop=1;jettySize=auto;html=1;entryX=0.5;entryY=0;entryDx=0;entryDy=0;" parent="WIyWlLk6GJQsqaUBKTNV-1" source="vsUGtmn5lmGGKZTb9wEo-1" target="vsUGtmn5lmGGKZTb9wEo-47" edge="1">
          <mxGeometry relative="1" as="geometry" />
        </mxCell>
        <mxCell id="vsUGtmn5lmGGKZTb9wEo-1" value="" style="ellipse;whiteSpace=wrap;html=1;" parent="WIyWlLk6GJQsqaUBKTNV-1" vertex="1">
          <mxGeometry x="464" y="40" width="100" height="60" as="geometry" />
        </mxCell>
        <mxCell id="vsUGtmn5lmGGKZTb9wEo-2" value="" style="shape=cylinder3;whiteSpace=wrap;html=1;boundedLbl=1;backgroundOutline=1;size=15;" parent="WIyWlLk6GJQsqaUBKTNV-1" vertex="1">
          <mxGeometry x="145" y="80" width="60" height="80" as="geometry" />
        </mxCell>
        <mxCell id="vsUGtmn5lmGGKZTb9wEo-37" style="edgeStyle=orthogonalEdgeStyle;rounded=0;orthogonalLoop=1;jettySize=auto;html=1;" parent="WIyWlLk6GJQsqaUBKTNV-1" source="vsUGtmn5lmGGKZTb9wEo-3" target="vsUGtmn5lmGGKZTb9wEo-33" edge="1">
          <mxGeometry relative="1" as="geometry" />
        </mxCell>
        <mxCell id="vsUGtmn5lmGGKZTb9wEo-3" value="" style="rounded=1;whiteSpace=wrap;html=1;" parent="WIyWlLk6GJQsqaUBKTNV-1" vertex="1">
          <mxGeometry x="215" y="150" width="100" height="50" as="geometry" />
        </mxCell>
        <mxCell id="vsUGtmn5lmGGKZTb9wEo-5" value="DB" style="text;html=1;align=center;verticalAlign=middle;whiteSpace=wrap;rounded=0;" parent="WIyWlLk6GJQsqaUBKTNV-1" vertex="1">
          <mxGeometry x="145" y="120" width="60" height="30" as="geometry" />
        </mxCell>
        <mxCell id="vsUGtmn5lmGGKZTb9wEo-7" value="NBA_API" style="text;html=1;align=center;verticalAlign=middle;whiteSpace=wrap;rounded=0;" parent="WIyWlLk6GJQsqaUBKTNV-1" vertex="1">
          <mxGeometry x="225" y="90" width="60" height="30" as="geometry" />
        </mxCell>
        <mxCell id="vsUGtmn5lmGGKZTb9wEo-8" value="資料前處理" style="text;html=1;align=center;verticalAlign=middle;whiteSpace=wrap;rounded=0;" parent="WIyWlLk6GJQsqaUBKTNV-1" vertex="1">
          <mxGeometry x="227.5" y="160" width="75" height="30" as="geometry" />
        </mxCell>
        <mxCell id="vsUGtmn5lmGGKZTb9wEo-40" style="edgeStyle=orthogonalEdgeStyle;rounded=0;orthogonalLoop=1;jettySize=auto;html=1;entryX=0;entryY=0.5;entryDx=0;entryDy=0;" parent="WIyWlLk6GJQsqaUBKTNV-1" source="vsUGtmn5lmGGKZTb9wEo-9" target="vsUGtmn5lmGGKZTb9wEo-14" edge="1">
          <mxGeometry relative="1" as="geometry" />
        </mxCell>
        <mxCell id="vsUGtmn5lmGGKZTb9wEo-9" value="" style="shape=cylinder3;whiteSpace=wrap;html=1;boundedLbl=1;backgroundOutline=1;size=15;" parent="WIyWlLk6GJQsqaUBKTNV-1" vertex="1">
          <mxGeometry x="210" y="360" width="110" height="60" as="geometry" />
        </mxCell>
        <mxCell id="vsUGtmn5lmGGKZTb9wEo-11" value="整理過的資料" style="text;html=1;align=center;verticalAlign=middle;whiteSpace=wrap;rounded=0;" parent="WIyWlLk6GJQsqaUBKTNV-1" vertex="1">
          <mxGeometry x="227.5" y="390" width="75" height="30" as="geometry" />
        </mxCell>
        <mxCell id="vsUGtmn5lmGGKZTb9wEo-12" value="程式開始" style="text;html=1;align=center;verticalAlign=middle;whiteSpace=wrap;rounded=0;" parent="WIyWlLk6GJQsqaUBKTNV-1" vertex="1">
          <mxGeometry x="484" y="55" width="60" height="30" as="geometry" />
        </mxCell>
        <mxCell id="KZnEdi1O-3y6JhGccyzE-6" value="" style="edgeStyle=orthogonalEdgeStyle;rounded=0;orthogonalLoop=1;jettySize=auto;html=1;" edge="1" parent="WIyWlLk6GJQsqaUBKTNV-1" source="vsUGtmn5lmGGKZTb9wEo-14" target="KZnEdi1O-3y6JhGccyzE-5">
          <mxGeometry relative="1" as="geometry" />
        </mxCell>
        <mxCell id="vsUGtmn5lmGGKZTb9wEo-14" value="" style="rounded=1;whiteSpace=wrap;html=1;" parent="WIyWlLk6GJQsqaUBKTNV-1" vertex="1">
          <mxGeometry x="469.5" y="365" width="89" height="50" as="geometry" />
        </mxCell>
        <mxCell id="vsUGtmn5lmGGKZTb9wEo-15" value="模型訓練" style="text;html=1;align=center;verticalAlign=middle;whiteSpace=wrap;rounded=0;" parent="WIyWlLk6GJQsqaUBKTNV-1" vertex="1">
          <mxGeometry x="484" y="375" width="60" height="30" as="geometry" />
        </mxCell>
        <mxCell id="vsUGtmn5lmGGKZTb9wEo-29" style="edgeStyle=orthogonalEdgeStyle;rounded=0;orthogonalLoop=1;jettySize=auto;html=1;entryX=0.61;entryY=0;entryDx=0;entryDy=0;entryPerimeter=0;" parent="WIyWlLk6GJQsqaUBKTNV-1" source="vsUGtmn5lmGGKZTb9wEo-2" target="vsUGtmn5lmGGKZTb9wEo-3" edge="1">
          <mxGeometry relative="1" as="geometry">
            <Array as="points">
              <mxPoint x="260" y="120" />
              <mxPoint x="260" y="150" />
            </Array>
          </mxGeometry>
        </mxCell>
        <mxCell id="vsUGtmn5lmGGKZTb9wEo-39" style="edgeStyle=orthogonalEdgeStyle;rounded=0;orthogonalLoop=1;jettySize=auto;html=1;" parent="WIyWlLk6GJQsqaUBKTNV-1" source="vsUGtmn5lmGGKZTb9wEo-33" target="vsUGtmn5lmGGKZTb9wEo-9" edge="1">
          <mxGeometry relative="1" as="geometry" />
        </mxCell>
        <mxCell id="vsUGtmn5lmGGKZTb9wEo-33" value="" style="rhombus;whiteSpace=wrap;html=1;" parent="WIyWlLk6GJQsqaUBKTNV-1" vertex="1">
          <mxGeometry x="222.5" y="230" width="85" height="90" as="geometry" />
        </mxCell>
        <mxCell id="vsUGtmn5lmGGKZTb9wEo-38" value="計算特徵" style="text;html=1;align=center;verticalAlign=middle;whiteSpace=wrap;rounded=0;" parent="WIyWlLk6GJQsqaUBKTNV-1" vertex="1">
          <mxGeometry x="235" y="260" width="60" height="30" as="geometry" />
        </mxCell>
        <mxCell id="KZnEdi1O-3y6JhGccyzE-3" style="edgeStyle=orthogonalEdgeStyle;rounded=0;orthogonalLoop=1;jettySize=auto;html=1;entryX=0.75;entryY=0;entryDx=0;entryDy=0;" edge="1" parent="WIyWlLk6GJQsqaUBKTNV-1" source="vsUGtmn5lmGGKZTb9wEo-47" target="vsUGtmn5lmGGKZTb9wEo-55">
          <mxGeometry relative="1" as="geometry" />
        </mxCell>
        <mxCell id="vsUGtmn5lmGGKZTb9wEo-47" value="" style="shape=parallelogram;perimeter=parallelogramPerimeter;whiteSpace=wrap;html=1;fixedSize=1;" parent="WIyWlLk6GJQsqaUBKTNV-1" vertex="1">
          <mxGeometry x="530" y="155" width="110" height="40" as="geometry" />
        </mxCell>
        <mxCell id="vsUGtmn5lmGGKZTb9wEo-48" value="輸入選手名稱" style="text;html=1;align=center;verticalAlign=middle;whiteSpace=wrap;rounded=0;" parent="WIyWlLk6GJQsqaUBKTNV-1" vertex="1">
          <mxGeometry x="540" y="160" width="90" height="30" as="geometry" />
        </mxCell>
        <mxCell id="vsUGtmn5lmGGKZTb9wEo-49" value="" style="rounded=1;whiteSpace=wrap;html=1;" parent="WIyWlLk6GJQsqaUBKTNV-1" vertex="1">
          <mxGeometry x="400" y="155" width="90" height="45" as="geometry" />
        </mxCell>
        <mxCell id="vsUGtmn5lmGGKZTb9wEo-50" value="分割資料集" style="text;html=1;align=center;verticalAlign=middle;whiteSpace=wrap;rounded=0;" parent="WIyWlLk6GJQsqaUBKTNV-1" vertex="1">
          <mxGeometry x="410" y="162.5" width="70" height="30" as="geometry" />
        </mxCell>
        <mxCell id="vsUGtmn5lmGGKZTb9wEo-51" style="edgeStyle=orthogonalEdgeStyle;rounded=0;orthogonalLoop=1;jettySize=auto;html=1;entryX=0.422;entryY=0.022;entryDx=0;entryDy=0;entryPerimeter=0;" parent="WIyWlLk6GJQsqaUBKTNV-1" source="vsUGtmn5lmGGKZTb9wEo-1" target="vsUGtmn5lmGGKZTb9wEo-49" edge="1">
          <mxGeometry relative="1" as="geometry" />
        </mxCell>
        <mxCell id="vsUGtmn5lmGGKZTb9wEo-57" style="edgeStyle=orthogonalEdgeStyle;rounded=0;orthogonalLoop=1;jettySize=auto;html=1;entryX=1;entryY=0.5;entryDx=0;entryDy=0;" parent="WIyWlLk6GJQsqaUBKTNV-1" source="vsUGtmn5lmGGKZTb9wEo-54" target="vsUGtmn5lmGGKZTb9wEo-55" edge="1">
          <mxGeometry relative="1" as="geometry" />
        </mxCell>
        <mxCell id="vsUGtmn5lmGGKZTb9wEo-54" value="" style="whiteSpace=wrap;html=1;aspect=fixed;" parent="WIyWlLk6GJQsqaUBKTNV-1" vertex="1">
          <mxGeometry x="720" y="190" width="60" height="60" as="geometry" />
        </mxCell>
        <mxCell id="vsUGtmn5lmGGKZTb9wEo-71" style="edgeStyle=orthogonalEdgeStyle;rounded=0;orthogonalLoop=1;jettySize=auto;html=1;entryX=0.5;entryY=0;entryDx=0;entryDy=0;" parent="WIyWlLk6GJQsqaUBKTNV-1" source="vsUGtmn5lmGGKZTb9wEo-55" target="vsUGtmn5lmGGKZTb9wEo-14" edge="1">
          <mxGeometry relative="1" as="geometry" />
        </mxCell>
        <mxCell id="vsUGtmn5lmGGKZTb9wEo-55" value="" style="rounded=1;whiteSpace=wrap;html=1;" parent="WIyWlLk6GJQsqaUBKTNV-1" vertex="1">
          <mxGeometry x="466" y="290" width="96" height="45" as="geometry" />
        </mxCell>
        <mxCell id="vsUGtmn5lmGGKZTb9wEo-56" value="建模" style="text;html=1;align=center;verticalAlign=middle;whiteSpace=wrap;rounded=0;" parent="WIyWlLk6GJQsqaUBKTNV-1" vertex="1">
          <mxGeometry x="484" y="297.5" width="60" height="30" as="geometry" />
        </mxCell>
        <mxCell id="vsUGtmn5lmGGKZTb9wEo-58" value="XGBoost&lt;div&gt;Alogrithm&lt;/div&gt;" style="text;html=1;align=center;verticalAlign=middle;whiteSpace=wrap;rounded=0;" parent="WIyWlLk6GJQsqaUBKTNV-1" vertex="1">
          <mxGeometry x="720" y="210" width="60" height="20" as="geometry" />
        </mxCell>
        <mxCell id="vsUGtmn5lmGGKZTb9wEo-68" style="edgeStyle=orthogonalEdgeStyle;rounded=0;orthogonalLoop=1;jettySize=auto;html=1;entryX=0.197;entryY=-0.021;entryDx=0;entryDy=0;entryPerimeter=0;" parent="WIyWlLk6GJQsqaUBKTNV-1" source="vsUGtmn5lmGGKZTb9wEo-49" target="vsUGtmn5lmGGKZTb9wEo-55" edge="1">
          <mxGeometry relative="1" as="geometry" />
        </mxCell>
        <mxCell id="vsUGtmn5lmGGKZTb9wEo-69" value="分割測試資料集" style="text;html=1;align=center;verticalAlign=middle;whiteSpace=wrap;rounded=0;" parent="WIyWlLk6GJQsqaUBKTNV-1" vertex="1">
          <mxGeometry x="394" y="250" width="90" height="30" as="geometry" />
        </mxCell>
        <mxCell id="vsUGtmn5lmGGKZTb9wEo-70" value="選手10場數據" style="text;html=1;align=center;verticalAlign=middle;whiteSpace=wrap;rounded=0;" parent="WIyWlLk6GJQsqaUBKTNV-1" vertex="1">
          <mxGeometry x="540" y="250" width="80" height="30" as="geometry" />
        </mxCell>
        <mxCell id="KZnEdi1O-3y6JhGccyzE-13" style="edgeStyle=orthogonalEdgeStyle;rounded=0;orthogonalLoop=1;jettySize=auto;html=1;entryX=0.5;entryY=0;entryDx=0;entryDy=0;" edge="1" parent="WIyWlLk6GJQsqaUBKTNV-1" source="KZnEdi1O-3y6JhGccyzE-5" target="KZnEdi1O-3y6JhGccyzE-10">
          <mxGeometry relative="1" as="geometry" />
        </mxCell>
        <mxCell id="KZnEdi1O-3y6JhGccyzE-5" value="" style="whiteSpace=wrap;html=1;rounded=1;" vertex="1" parent="WIyWlLk6GJQsqaUBKTNV-1">
          <mxGeometry x="481" y="450" width="66" height="45" as="geometry" />
        </mxCell>
        <mxCell id="KZnEdi1O-3y6JhGccyzE-7" value="預測" style="text;html=1;align=center;verticalAlign=middle;whiteSpace=wrap;rounded=0;" vertex="1" parent="WIyWlLk6GJQsqaUBKTNV-1">
          <mxGeometry x="484" y="457.5" width="60" height="30" as="geometry" />
        </mxCell>
        <mxCell id="KZnEdi1O-3y6JhGccyzE-8" value="繪圖" style="rounded=1;whiteSpace=wrap;html=1;" vertex="1" parent="WIyWlLk6GJQsqaUBKTNV-1">
          <mxGeometry x="476" y="600" width="76" height="45" as="geometry" />
        </mxCell>
        <mxCell id="KZnEdi1O-3y6JhGccyzE-14" style="edgeStyle=orthogonalEdgeStyle;rounded=0;orthogonalLoop=1;jettySize=auto;html=1;entryX=0.5;entryY=0;entryDx=0;entryDy=0;" edge="1" parent="WIyWlLk6GJQsqaUBKTNV-1" source="KZnEdi1O-3y6JhGccyzE-10" target="KZnEdi1O-3y6JhGccyzE-8">
          <mxGeometry relative="1" as="geometry" />
        </mxCell>
        <mxCell id="KZnEdi1O-3y6JhGccyzE-10" value="" style="whiteSpace=wrap;html=1;rounded=1;" vertex="1" parent="WIyWlLk6GJQsqaUBKTNV-1">
          <mxGeometry x="481" y="530" width="66" height="45" as="geometry" />
        </mxCell>
        <mxCell id="KZnEdi1O-3y6JhGccyzE-11" value="分析" style="text;html=1;align=center;verticalAlign=middle;whiteSpace=wrap;rounded=0;" vertex="1" parent="WIyWlLk6GJQsqaUBKTNV-1">
          <mxGeometry x="484" y="537.5" width="60" height="30" as="geometry" />
        </mxCell>
      </root>
    </mxGraphModel>
  </diagram>
</mxfile>
